<?xml version="1.0" encoding="UTF-8" standalone="no"?>
<svg
   width="246"
   height="202"
   viewBox="0 0 246 202"
   fill="none"
   version="1.1"
   id="svg4"
   sodipodi:docname="union.svg"
   inkscape:version="1.3 (0e150ed6c4, 2023-07-21)"
   xmlns:inkscape="http://www.inkscape.org/namespaces/inkscape"
   xmlns:sodipodi="http://sodipodi.sourceforge.net/DTD/sodipodi-0.dtd"
   xmlns="http://www.w3.org/2000/svg"
   xmlns:svg="http://www.w3.org/2000/svg">
  <defs
     id="defs4" />
  <sodipodi:namedview
     id="namedview4"
     pagecolor="#ffffff"
     bordercolor="#000000"
     borderopacity="0.25"
     inkscape:showpageshadow="2"
     inkscape:pageopacity="0.0"
     inkscape:pagecheckerboard="0"
     inkscape:deskcolor="#d1d1d1"
     inkscape:zoom="4.1138614"
     inkscape:cx="122.9988"
     inkscape:cy="101"
     inkscape:window-width="1920"
     inkscape:window-height="1027"
     inkscape:window-x="1912"
     inkscape:window-y="-8"
     inkscape:window-maximized="1"
     inkscape:current-layer="svg4" />
  <mask
     id="path-1-outside-1_26_1245"
     maskUnits="userSpaceOnUse"
     x="-2.5068"
     y="-2.63838"
     width="249.982"
     height="206.848"
     fill="black">
    <rect
       fill="white"
       x="-2.5068"
       y="-2.63838"
       width="249.982"
       height="206.848"
       id="rect1" />
    <path
       fill-rule="evenodd"
       clip-rule="evenodd"
       d="M187.681 166.415C190.51 155.857 202.242 150.188 211.912 145.095C218.325 141.717 223.365 135.777 225.389 128.223C227.413 120.67 226.018 113.005 222.153 106.873C216.325 97.6274 209 86.8517 211.828 76.2946L212.523 73.7008C216.316 59.546 207.916 44.9965 193.761 41.2038C179.653 37.4235 165.153 45.756 161.302 59.8264C165.002 45.7156 156.611 31.249 142.503 27.4687C128.348 23.6759 113.798 32.0761 110.006 46.2309L104.212 67.8538C104.212 67.8544 104.211 67.8548 104.21 67.8546C104.21 67.8545 104.209 67.8539 104.21 67.8533L110.003 46.2314C113.796 32.0765 105.396 17.5271 91.241 13.7343C77.0861 9.94152 62.5367 18.3417 58.7439 32.4965L58.0469 35.0977C55.219 45.6517 43.493 51.3207 33.8263 56.4137C27.4144 59.7919 22.3756 65.7313 20.3519 73.2838C18.3282 80.8363 19.7223 88.4994 23.5861 94.6309C29.4111 103.875 36.7316 114.647 33.9037 125.201L33.2056 127.807C29.4128 141.962 37.8129 156.511 51.9678 160.304C66.1226 164.097 80.6721 155.696 84.4649 141.542L90.2595 119.916C90.2597 119.915 90.2603 119.915 90.2609 119.915C90.2615 119.915 90.2618 119.916 90.2617 119.916L84.4673 141.541C80.6745 155.696 89.0746 170.245 103.229 174.038C117.338 177.819 131.838 169.486 135.689 155.416C131.988 169.526 140.38 183.993 154.488 187.773C168.643 191.566 183.192 183.166 186.985 169.011L187.681 166.415Z"
       id="path1" />
  </mask>
  <path
     fill-rule="evenodd"
     clip-rule="evenodd"
     d="m 202.46687,147.40346 c -1e-5,-10.93045 9.86499,-19.44274 17.88732,-26.86499 5.3202,-4.9227 8.65108,-11.96475 8.651,-19.7852 1.7e-4,-7.81949 -3.33114,-14.862258 -8.65154,-19.784975 C 212.3313,73.546129 202.46694,65.03345 202.4662,54.104135 l 0,-2.685298 c 2.2e-4,-14.654188 -11.87924,-26.533846 -26.53355,-26.533729 -14.60569,-7.1e-5 -26.45501,11.801383 -26.53309,26.389057 -0.0782,-14.587616 -11.92754,-26.389528 -26.53324,-26.389599 -14.65432,2e-5 -26.534414,11.879808 -26.533677,26.533737 l -1.5e-4,22.385714 c 1.53e-4,5.81e-4 -7.04e-4,0.0013 -0.0018,0.0013 -2.7e-5,-9.6e-5 -0.001,-4.32e-4 -3.46e-4,-0.0013 L 96.329882,51.419561 C 96.330078,36.765278 84.450639,24.885717 69.79631,24.885736 55.142083,24.88575 43.262568,36.765363 43.262536,51.419499 l -10e-6,2.692963 c 3.5e-5,10.926295 -9.859166,19.437041 -17.878316,26.858428 -5.319077,4.922612 -8.648954,11.96377 -8.648968,19.7827 -1.3e-5,7.81892 3.329941,14.86009 8.649032,19.78263 8.019069,7.42151 17.878127,15.93177 17.878162,26.85807 l 1.69e-4,2.69787 c 2e-5,14.65434 11.879452,26.53349 26.533736,26.53368 14.654188,2.3e-4 26.533587,-11.8802 26.533826,-26.53356 l -6.6e-5,-22.38886 c -6.3e-5,-10e-4 5.3e-4,-0.001 0.0011,-0.001 5.8e-4,-1.5e-4 0.0012,7.3e-4 0.001,7.6e-4 l 0,22.38784 c 1.9e-5,14.65433 11.879458,26.53348 26.533248,26.53381 14.60684,4.8e-4 26.45603,-11.80145 26.53423,-26.38874 0.077,14.58711 11.92743,26.38915 26.53304,26.38892 14.65439,1.8e-4 26.53356,-11.87916 26.53373,-26.53354 z"
     fill="#271A58"
     id="path2"
     style="fill:none;fill-opacity:1;stroke:none;stroke-opacity:1" />
  <path
     d="m 212.523,73.7008 -1.932,-0.5176 z m -51.221,-13.8744 -1.935,-0.5073 3.864,1.0353 z m -76.8371,81.7156 1.9318,0.517 z m 51.2241,13.874 1.934,0.507 -3.863,-1.035 z M 23.5861,94.6309 21.894,95.6972 Z M 211.828,76.2946 213.76,76.8122 Z M 33.8263,56.4137 32.8941,54.6443 Z m 56.4332,63.5023 -1.9318,-0.518 z m 121.6525,25.179 -0.932,-1.77 z m 11.545,-17.389 c -1.874,6.993 -6.536,12.49 -12.477,15.619 l 1.864,3.539 c 6.886,-3.626 12.303,-10.009 14.477,-18.123 z m -2.996,-19.766 c 3.581,5.68 4.87,12.773 2.996,19.766 l 3.864,1.035 c 2.174,-8.114 0.674,-16.35 -3.476,-22.934 z m -9.87,-34.7568 -0.695,2.5937 3.864,1.0353 0.695,-2.5937 z M 193.243,43.1356 c 13.088,3.5069 20.855,16.9597 17.348,30.0476 l 3.864,1.0353 c 4.079,-15.2218 -4.954,-30.8679 -20.176,-34.9466 z m -30.012,17.2188 c 3.56,-13.0097 16.968,-20.7141 30.012,-17.2188 l 1.036,-3.8637 c -15.172,-4.0653 -30.765,4.8953 -34.906,20.0266 z M 141.985,29.4005 c 13.045,3.4954 20.804,16.8716 17.382,29.9186 l 3.869,1.0147 c 3.98,-15.1747 -5.044,-30.7317 -20.216,-34.797 z m -30.048,17.3481 c 3.507,-13.088 16.96,-20.855 30.048,-17.3481 l 1.035,-3.8637 c -15.221,-4.0786 -30.868,4.9547 -34.946,20.1765 z m -5.793,21.6229 5.793,-21.6229 -3.863,-1.0353 -5.794,21.6229 z m 1.927,-22.6577 -5.793,21.6218 3.863,1.0353 5.794,-21.6219 z M 90.7233,15.6662 c 13.0877,3.5069 20.8547,16.9596 17.3477,30.0476 l 3.864,1.0352 C 116.014,31.5272 106.98,15.8811 91.7586,11.8025 Z m -30.0476,17.348 c 3.5069,-13.088 16.9597,-20.8549 30.0476,-17.348 l 1.0353,-3.8637 C 76.5368,7.72379 60.8907,16.7571 56.812,31.9789 Z m -0.697,2.6011 0.697,-2.6011 -3.8637,-1.0353 -0.697,2.6012 z M 22.2838,73.8014 c 1.8735,-6.992 6.5353,-12.4889 12.4748,-15.6182 l -1.8645,-3.5389 c -6.8843,3.6271 -12.3002,10.0089 -14.474,18.1218 z m 2.9944,19.7633 C 21.699,87.8848 20.4103,80.7934 22.2838,73.8014 l -3.8637,-1.0353 c -2.1739,8.113 -0.6745,16.3478 3.4739,22.9311 z m 9.8592,34.7593 0.6981,-2.605 -3.8637,-1.035 -0.6981,2.605 z m 17.348,30.048 c -13.0879,-3.507 -20.8549,-16.96 -17.348,-30.048 l -3.8637,-1.035 c -4.0786,15.222 4.9547,30.868 20.1764,34.947 z M 82.533,141.024 c -3.5069,13.088 -16.9596,20.855 -30.0476,17.348 l -1.0353,3.864 c 15.2218,4.078 30.868,-4.955 34.9466,-20.177 z m 5.7947,-21.626 -5.7947,21.626 3.8637,1.035 5.7947,-21.626 z m -1.9286,22.661 5.7944,-21.625 -3.8637,-1.035 -5.7944,21.624 z m 17.3479,30.047 C 90.6592,168.599 82.8922,155.147 86.3991,142.059 l -3.8637,-1.036 c -4.0786,15.222 4.9547,30.868 20.1766,34.947 z m 30.013,-17.218 c -3.561,13.009 -16.968,20.714 -30.013,17.218 l -1.035,3.864 c 15.172,4.065 30.765,-4.895 34.906,-20.027 z m 21.246,30.953 c -13.045,-3.495 -20.804,-16.871 -17.383,-29.918 l -3.869,-1.015 c -3.979,15.175 5.044,30.732 20.216,34.797 z m 30.047,-17.348 c -3.507,13.088 -16.959,20.855 -30.047,17.348 l -1.036,3.864 c 15.222,4.079 30.868,-4.955 34.947,-20.176 z m 0.696,-2.596 -0.696,2.596 3.864,1.036 0.696,-2.597 z M 21.894,95.6972 c 2.951,4.6828 6.1293,9.5268 8.2562,14.5128 2.1173,4.963 3.0726,9.805 1.8216,14.474 l 3.8637,1.035 c 1.577,-5.885 0.286,-11.706 -2.0062,-17.079 -2.2826,-5.35 -5.6771,-10.5144 -8.5511,-15.0753 z m 67.8493,26.1498 c -1.0664,-0.286 -1.6992,-1.382 -1.4135,-2.448 l 3.8637,1.035 c 0.2861,-1.068 -0.3474,-2.165 -1.415,-2.451 z M 104.728,65.9228 c 1.066,0.2856 1.699,1.3815 1.413,2.4481 l -3.863,-1.0353 c -0.286,1.0679 0.348,2.1649 1.415,2.4509 z m 119.117,39.8842 c -2.952,-4.684 -6.133,-9.5296 -8.261,-14.5164 -2.119,-4.9645 -3.075,-9.8082 -1.824,-14.4784 l -3.864,-1.0353 c -1.577,5.887 -0.285,11.7097 2.009,17.0839 2.284,5.3518 5.681,10.5172 8.556,15.0792 z M 56.115,34.5801 c -1.2509,4.6687 -4.4994,8.3846 -8.8146,11.624 -4.3346,3.254 -9.5091,5.86 -14.4063,8.4402 l 1.8645,3.5389 c 4.7694,-2.5129 10.2912,-5.2879 14.9433,-8.7802 4.6714,-3.5069 8.6999,-7.9025 10.2768,-13.7877 z m 36.0764,85.8529 c -0.2857,1.067 -1.3818,1.699 -2.4481,1.414 l 1.0352,-3.864 c -1.0675,-0.286 -2.1648,0.347 -2.4508,1.415 z M 102.28,67.3362 c 0.286,-1.0663 1.382,-1.6992 2.448,-1.4134 l -1.035,3.8637 c 1.067,0.286 2.165,-0.3475 2.451,-1.415 z m 108.7,75.9888 c -4.771,2.513 -10.296,5.289 -14.95,8.781 -4.673,3.508 -8.704,7.904 -10.281,13.791 l 3.864,1.035 c 1.251,-4.67 4.501,-8.387 8.818,-11.626 4.337,-3.255 9.514,-5.861 14.413,-8.442 z"
     fill="#ff8071"
     mask="url(#path-1-outside-1_26_1245)"
     id="path3"
     style="stroke:none"
     transform="rotate(-15,122.87044,100.75431)" />
</svg>
